<?xml version="1.0" encoding="UTF-8"?>
<svg version="1.1" xmlns="http://www.w3.org/2000/svg" width="512" height="512">
<path d="M0 0 C3.6928223 2.97031359 4.8376214 4.3504856 6 9 C6 19.89 6 30.78 6 42 C54.84 42 103.68 42 154 42 C154 31.11 154 20.22 154 9 C156.55813953 2.60465116 156.55813953 2.60465116 160 0 C164.06901093 -1.13028081 166.26685658 -1.26787933 170.25 0.1875 C173.09691718 2.06387723 174.34824001 3.05169078 176 6 C176.25673097 8.83342655 176.35005816 11.4383719 176.29296875 14.265625 C176.28872391 15.05902283 176.28447906 15.85242065 176.28010559 16.66986084 C176.2633504 19.1969232 176.22570506 21.72317983 176.1875 24.25 C176.17244903 25.96613429 176.15876134 27.68228112 176.14648438 29.3984375 C176.11345735 33.59926746 176.06169765 37.79949725 176 42 C176.88124039 41.98889694 177.76248077 41.97779388 178.67042542 41.96635437 C187.03915319 41.86551578 195.40767236 41.78971522 203.77687168 41.74093914 C208.07799592 41.71501834 212.37861166 41.67994809 216.67944336 41.62280273 C220.84219685 41.56784807 225.00446617 41.53844837 229.16755486 41.52561378 C230.74336288 41.51648612 232.31914913 41.49866761 233.89474678 41.47134972 C247.5669453 41.244067 260.89270519 43.26134156 272 52 C272.79792969 52.61359375 273.59585937 53.2271875 274.41796875 53.859375 C286.01868869 63.47691589 292.53291434 76.09479106 294 91 C294.14700619 94.88114925 294.1435383 98.75961246 294.14044189 102.64320374 C294.14489858 104.39532761 294.14489858 104.39532761 294.1494453 106.18284792 C294.15660082 109.41226412 294.15930268 112.64164783 294.16004276 115.87107074 C294.16190017 119.35932497 294.16945097 122.84756783 294.17617798 126.33581543 C294.18973452 133.95799708 294.19578196 141.58017346 294.20018864 149.20236516 C294.20295584 153.96665702 294.20719408 158.73094686 294.21169281 163.49523735 C294.22388244 176.70016 294.23418206 189.90508104 294.2375679 203.11000919 C294.23778747 203.95444591 294.23800703 204.79888262 294.23823325 205.66890832 C294.23845153 206.51530527 294.23866981 207.36170221 294.2388947 208.23374754 C294.23933816 209.94871907 294.23978472 211.66369059 294.24023438 213.37866211 C294.2404558 214.22933769 294.24067723 215.08001327 294.24090537 215.95646691 C294.24485054 229.72998959 294.26229735 243.50345928 294.2855939 257.27696151 C294.30934865 271.43630821 294.32177164 285.59562835 294.32293582 299.75499529 C294.32385031 307.6975283 294.32954549 315.63999227 294.34775543 323.58250618 C294.36321225 330.3477972 294.36824418 337.11299784 294.36001733 343.87830318 C294.35613034 347.3251329 294.35694386 350.77178091 294.37107468 354.21858788 C294.44439404 375.74907642 294.27904079 394.86095681 278.5625 411.3125 C274.1616398 415.64139999 269.42632401 418.82204316 263.9375 421.625 C263.31367432 421.94380127 262.68984863 422.26260254 262.04711914 422.59106445 C252.29210257 427.14994154 241.82370669 427.29288085 231.24333191 427.26069641 C229.88262976 427.26372302 228.52192931 427.26761504 227.16123182 427.27228898 C223.45056413 427.28251217 219.73999367 427.28040176 216.02931821 427.27610838 C212.01624424 427.27363076 208.00319306 427.28266815 203.99012756 427.29014587 C196.13889608 427.30286637 188.28769884 427.30468986 180.43645879 427.30234561 C174.05144446 427.30055926 167.66644048 427.30231887 161.28142738 427.30657005 C160.37109068 427.30716524 159.46075398 427.30776043 158.52283132 427.30837366 C156.67319844 427.30958547 154.82356555 427.3107996 152.97393266 427.31201603 C135.64506953 427.32288144 118.31622587 427.32073386 100.98736165 427.31463119 C85.15450449 427.30946336 69.32170889 427.32071572 53.48886391 427.33972941 C37.2094836 427.35912861 20.93013238 427.36736013 4.65074044 427.36360615 C-4.4799745 427.36169721 -13.61063707 427.36415165 -22.74134254 427.37832069 C-30.51480849 427.39026205 -38.28818982 427.39160861 -46.06165699 427.37953053 C-50.02291906 427.37366103 -53.98402659 427.37248859 -57.94527817 427.38453293 C-61.5805177 427.39545698 -65.21547485 427.39221192 -68.85070153 427.37827124 C-70.76947911 427.37440881 -72.68826956 427.38511789 -74.60701686 427.39656812 C-91.46788264 427.29276891 -105.95478205 423.36811458 -118.3125 411.5625 C-122.64139999 407.1616398 -125.82204316 402.42632401 -128.625 396.9375 C-128.94380127 396.31367432 -129.26260254 395.68984863 -129.59106445 395.04711914 C-133.9028825 385.82075579 -134.29593766 375.90092148 -134.26069641 365.8757782 C-134.26452196 364.70427792 -134.26834751 363.53277764 -134.27228898 362.32577735 C-134.2807656 359.10535916 -134.28040709 355.88508857 -134.27610838 352.66466677 C-134.27362699 349.17920358 -134.28267278 345.69376644 -134.29014587 342.20831299 C-134.30285607 335.39180932 -134.30469116 328.57534511 -134.30234561 321.75883158 C-134.30055808 316.21430117 -134.30232139 310.66978267 -134.30657005 305.12525368 C-134.30716524 304.33425751 -134.30776043 303.54326135 -134.30837366 302.7282956 C-134.30958549 301.12105371 -134.31079962 299.51381182 -134.31201603 297.90656994 C-134.3228775 282.85391618 -134.32073575 267.80128486 -134.31463119 252.74862985 C-134.30946388 239.00122374 -134.32071505 225.25388854 -134.33972941 211.50649645 C-134.35913763 197.36509873 -134.36735854 183.22373449 -134.36360615 169.08232337 C-134.36169856 161.15326943 -134.36413843 153.2242758 -134.37832069 145.29523277 C-134.39027362 138.54467119 -134.3915958 131.79420705 -134.37953053 125.04364403 C-134.373669 121.60489237 -134.37246601 118.1663186 -134.38453293 114.72757912 C-134.44690387 92.53320921 -134.01731903 73.36138277 -117.6875 56.47265625 C-104.29850873 44.15400585 -89.04306606 41.20870643 -71.56640625 41.51171875 C-69.95117808 41.52107475 -68.33593546 41.52817762 -66.72068787 41.53315735 C-62.52337633 41.55200867 -58.32696653 41.60091201 -54.13000488 41.65667725 C-49.82572621 41.70834987 -45.52129805 41.73077254 -41.21679688 41.75585938 C-32.81078972 41.8090593 -24.40550784 41.89409605 -16 42 C-16.0314209 40.40345581 -16.0314209 40.40345581 -16.06347656 38.7746582 C-16.13603962 34.81450934 -16.18185851 30.8544189 -16.21972656 26.89379883 C-16.23980505 25.18178414 -16.26707392 23.46983772 -16.30175781 21.75805664 C-16.35044401 19.29295992 -16.37300573 16.8287721 -16.390625 14.36328125 C-16.41127014 13.60163162 -16.43191528 12.83998199 -16.45318604 12.05525208 C-16.45474648 8.33461045 -16.14557115 6.22741239 -14.12011719 3.06323242 C-9.68900626 -1.24898757 -5.92017524 -1.58576122 0 0 Z M-103 73 C-105.46130377 76.14772315 -107.32835021 79.37712136 -109 83 C-109.53947266 84.14082031 -109.53947266 84.14082031 -110.08984375 85.3046875 C-119.124408 112.05940566 -112 141.76105003 -112 170 C14.72 170 141.44 170 272 170 C277.29464218 122.76485324 277.29464218 122.76485324 263 73 C255.1102123 66.02731583 246.53294148 63.86691898 236.16845703 63.88647461 C235.51409164 63.88632858 234.85972626 63.88618256 234.18553162 63.8860321 C232.04292374 63.88672353 229.90040501 63.89447948 227.7578125 63.90234375 C226.26423185 63.90421067 224.77065058 63.90563328 223.27706909 63.90663147 C219.36114793 63.91043506 215.44526432 63.92024676 211.52935791 63.93133545 C207.52738961 63.94159612 203.52541519 63.94613904 199.5234375 63.95117188 C191.6822745 63.9618711 183.84114193 63.9789214 176 64 C175.99589111 65.06436279 175.99178223 66.12872559 175.98754883 67.2253418 C175.96572552 71.18611634 175.91140394 75.14590195 175.84741211 79.10620117 C175.82425975 80.81801859 175.80984285 82.5299779 175.80444336 84.24194336 C175.79513297 86.70776498 175.75410221 89.17136374 175.70703125 91.63671875 C175.7109639 92.39836838 175.71489655 93.16001801 175.71894836 93.94474792 C175.61000108 97.94016129 175.15932923 99.79960466 172.64331055 102.96411133 C169.58136359 105.32243549 167.84803412 105.91983262 164 106 C160.56528095 105.04147375 158.18864066 103.84523286 156 101 C153.00436047 89.01744187 154.37411125 76.34567116 154 64 C105.16 64 56.32 64 6 64 C5.67 74.89 5.34 85.78 5 97 C2.48571429 103.28571429 2.48571429 103.28571429 0 105 C-4.0976926 106.08240937 -6.32068538 106.25634514 -10.3125 104.75 C-13 103 -13 103 -15 100 C-15.24073135 97.24781023 -15.37282688 94.58782534 -15.4140625 91.83203125 C-15.43342865 91.03721848 -15.4527948 90.2424057 -15.4727478 89.42350769 C-15.53249442 86.88661405 -15.57890883 84.34967491 -15.625 81.8125 C-15.66318435 80.09177716 -15.70223635 78.37107335 -15.7421875 76.65039062 C-15.83819179 72.43374835 -15.92224076 68.2170166 -16 64 C-24.58026477 63.95349393 -33.16047616 63.91803849 -41.74083614 63.89637566 C-45.72578853 63.88597436 -49.71065416 63.87188259 -53.69555664 63.84912109 C-57.54701646 63.82726151 -61.39839325 63.81540394 -65.24991035 63.81024551 C-66.71338773 63.80657316 -68.17686099 63.79940246 -69.64030266 63.78853989 C-82.39032378 63.69773457 -92.86236318 64.4316568 -103 73 Z M-112 192 C-129.04285128 301.6862401 -129.04285128 301.6862401 -103 396 C-92.2142653 404.81910501 -79.99717124 405.30353625 -66.6027832 405.25396729 C-64.6402219 405.25864726 -64.6402219 405.25864726 -62.63801289 405.26342177 C-59.03556333 405.27171432 -55.43322074 405.26766994 -51.83077097 405.26144934 C-47.93432321 405.25690299 -44.03789316 405.26391938 -40.14144897 405.26940918 C-32.51982305 405.27828162 -24.89823662 405.27639077 -17.27660918 405.2705839 C-11.07988013 405.26605894 -4.88316211 405.26545811 1.31356812 405.26763153 C2.638742 405.26809123 2.638742 405.26809123 3.99068707 405.26856022 C5.78564716 405.2691997 7.58060724 405.26984812 9.37556732 405.2705054 C26.18929745 405.2762024 43.00300574 405.2696607 59.81673229 405.25890467 C74.22972048 405.24996973 88.64267645 405.25152195 103.05566406 405.26074219 C119.8110663 405.27145596 136.56644941 405.27565313 153.32185459 405.26951766 C155.11004702 405.26888059 156.89823945 405.26825185 158.68643188 405.26763153 C159.56615447 405.26732298 160.44587706 405.26701443 161.35225791 405.26669653 C167.53834061 405.26497291 173.72441113 405.2678775 179.91049194 405.27259064 C187.45383115 405.27821177 194.99712875 405.27665714 202.54046321 405.26602915 C206.38588165 405.26078901 210.23123085 405.2586873 214.07664871 405.26532745 C218.25208663 405.2724282 222.42735113 405.26392412 226.6027832 405.25396729 C227.80834208 405.25842873 229.01390097 405.26289017 230.25599194 405.26748681 C242.45767716 405.2111604 253.26973209 403.956088 263 396 C306.08570255 343.30633591 272 260.0661443 272 192 C145.28 192 18.56 192 -112 192 Z " fill="#000000" transform="translate(176,43)"/>
</svg>
